<svg xmlns="http://www.w3.org/2000/svg" viewBox="0 0 68.66 60"><path d="M36.99 8.88c0-.09.08-.15.06-.26-.56-2.72-1.14-5.43-1.65-8.15-.09-.47-.29-.49-.62-.44l-4.46.74c-1.28.2-2.56.38-3.84.58s-2.67.44-4 .65c-1 .16-2.09.35-3.15.49-1.31.17-2.61.43-3.91.64s-2.56.37-3.83.58c-1.49.24-3 .5-4.46.74l-4.19.66c-.13 0-.22 0-.2.19a5.71 5.71 0 0 1-.1.92c0 1.12-.13 2.24-.17 3.36-.08 1.81-.19 3.61-.29 5.41-.06 1.12-.14 2.24-.19 3.36-.08 1.81-.19 3.61-.29 5.41-.06 1.15-.13 2.3-.19 3.45-.09 1.79-.19 3.58-.28 5.36-.06 1.13-.13 2.27-.19 3.4S.91 38.4.85 39.61s-.14 2.24-.19 3.36c-.08 1.8-.19 3.61-.29 5.41-.06 1.12-.14 2.24-.18 3.36 0 1.4-.16 2.8-.21 4.2 0 .39.08.49.48.49h27.58c.17 0 .35.05.49-.09a.58.58 0 0 0 .22-.45c.5-2.76 1-5.51 1.47-8.27a.69.69 0 0 0 0-.5 4.09 4.09 0 0 1-1 .18h-17a4.31 4.31 0 0 1-1.71-.33 2.1 2.1 0 0 1-1.21-1.69 10.52 10.52 0 0 1 1-7.13 11.5 11.5 0 0 1 3-3.41 49.84 49.84 0 0 1 6.23-3.92 17.78 17.78 0 0 0 3.56-2.55 5.44 5.44 0 0 0 1.76-4.31 3.84 3.84 0 0 0-3-3.7 6.25 6.25 0 0 0-4.31.26 2.38 2.38 0 0 0-1.7 2.45c.07 1 0 1-1 1h-3.87c-.27 0-.38 0-.38-.36V20.5a4.25 4.25 0 0 1 1.08-2.59 9.73 9.73 0 0 1 5.56-2.92 13.36 13.36 0 0 1 3.36-.36 12.26 12.26 0 0 1 4.61 1 9.23 9.23 0 0 1 4.12 3.53 8.51 8.51 0 0 1 1.26 3.57 9.83 9.83 0 0 1-.37 4.35 10.61 10.61 0 0 1-3.32 4.75 33.42 33.42 0 0 1-5.51 3.6 33.36 33.36 0 0 0-3.79 2.27 5.51 5.51 0 0 0-2.35 2.83c-.43 1.55 0 1.75 1.31 1.78h9.1c.96 0 1.21-.34 1.23-1.24v-1.41c0-.3.09-.37.37-.36h4.34l.07-.05a1.51 1.51 0 0 0 .21-.67c.34-1.88.67-3.77 1-5.66l2.66-15 1.51-8.48a.8.8 0 0 0-.05-.56Zm-14-.46c-1.11.15-2.21.38-3.32.54s-2.09.37-3.15.47c-.9.09-1.47-.47-1.68-1.45-.14-.62.64-1.54 1.31-1.64l5.61-.85c.36-.06.72-.14 1-.18a1.7 1.7 0 0 1 1.74 1.5 1.66 1.66 0 0 1-1.52 1.6Z" fill="#585a5b"/><path fill="#74c141" d="M68.65 59.42q-.47-7.16-.92-14.33c-.3-4.82-.58-9.65-.88-14.48-.39-6.3-.8-12.59-1.18-18.89 0-.4-.17-.47-.52-.5-1.71-.12-3.41-.28-5.11-.42l-9.43-.8-8.3-.71-5.3-.42a3.12 3.12 0 0 1 0 .42c-.46 2.5-.89 5-1.33 7.5s-.95 5.27-1.41 7.91-1 5.05-1.39 7.58c-.4 2.35-.8 4.7-1.25 7a1 1 0 0 0-.21.51c-.4 2.2-.78 4.39-1.19 6.59a1 1 0 0 0 0 .65c-.23 1.37-.45 2.75-.69 4.12-.3 1.71-.62 3.41-.93 5.12-.18 1.07-.33 2.14-.57 3.19-.11.5.08.48.45.48h39.69c.44.06.5-.06.47-.52ZM48.31 12.73c1.07 0 2.13.12 3.19.18l3.33.2a1.65 1.65 0 0 1 1.55 1.65 1.58 1.58 0 0 1-1.57 1.56c-1.47 0-2.94-.14-4.42-.22l-2.25-.14a1.612 1.612 0 1 1 .16-3.22Zm13.61 34.15c0 .29-.08.37-.37.37H57.4c-.35 0-.44.09-.44.44v7.21c0 .37-.1.46-.46.46h-5c-.36 0-.44-.1-.44-.45v-7.07c0-.45-.08-.6-.58-.6H37.19c-.41 0-.54-.09-.52-.51a17.41 17.41 0 0 0 0-2.21 2.73 2.73 0 0 1 .53-1.79q6.31-9.57 12.59-19.16a.74.74 0 0 1 .71-.4h6.08c.36 0 .45.1.44.45v18.15c0 .37.09.48.47.47h4.05c.31 0 .4.09.4.4q-.04 2.15-.02 4.24Z"/><path fill="#74c141" d="M51.4 29.82c-.06.8-.15 1.53-.18 2.25-.1 3.2 0 6.41 0 9.61 0 .51-.16.6-.63.6-2.46 0-4.93-.08-7.39.08h-.24c2.93-4.08 5.77-8.2 8.44-12.54Z"/></svg>