<svg width="92" height="92" viewBox="0 0 92 92" xmlns="http://www.w3.org/2000/svg"><path fill="#fff" fill-rule="evenodd" d="M2.75 20A2.75 2.75 0 0 0 0 22.75v26.5A2.75 2.75 0 0 0 2.75 52h86.5A2.75 2.75 0 0 0 92 49.25v-26.5A2.75 2.75 0 0 0 89.25 20Z"/><path fill="#0063fb" fill-rule="evenodd" d="M11.252 22.088h-8.23a.93.93 0 0 0-.93.929v25.966c0 .514.416.93.93.93h26.952V40.77c0-10.302-8.399-18.683-18.722-18.683Z"/><path fill="#06befb" fill-rule="evenodd" d="M88.977 22.088h-55.98a.93.93 0 0 0-.931.929v26.895h56.911a.93.93 0 0 0 .93-.928V23.017a.93.93 0 0 0-.93-.93Z"/><path fill="#fff" fill-rule="evenodd" d="M41.507 30.575h7.538c.328 0 .593.265.593.592v1.856a.592.592 0 0 1-.593.592h-4.833v2.45h3.848c.328 0 .593.264.593.591v1.58a.592.592 0 0 1-.593.592h-3.848v2.006a.592.592 0 0 1-.593.591h-2.112a.592.592 0 0 1-.593-.591v-9.667c0-.327.266-.592.593-.592Zm11.415 0h2.111c.328 0 .593.265.593.592v9.667a.592.592 0 0 1-.593.591h-2.11a.592.592 0 0 1-.594-.591v-9.667c0-.327.266-.592.593-.592Zm27.545 0h-2.112a.592.592 0 0 0-.593.592v4.74l-3.301-4.978a.792.792 0 0 0-.66-.354H72.18a.592.592 0 0 0-.593.592v9.667c0 .326.266.591.593.591h2.112a.592.592 0 0 0 .593-.591v-4.686l3.229 4.92a.791.791 0 0 0 .661.357h1.693a.592.592 0 0 0 .593-.591v-9.667a.592.592 0 0 0-.593-.592Zm-14.829 0h2.112c.328 0 .593.265.593.592v9.667a.592.592 0 0 1-.593.591h-1.692a.791.791 0 0 1-.662-.357l-3.229-4.92v4.686a.592.592 0 0 1-.593.591h-2.111a.592.592 0 0 1-.593-.591v-9.667c0-.327.265-.592.593-.592h1.622c.265 0 .513.133.66.354l3.3 4.978v-4.74c0-.327.266-.592.593-.592Z"/></svg>