<svg width="268" height="268" viewBox="0 0 268 268" xmlns="http://www.w3.org/2000/svg"><path d="M214.9 106c0 44.79-36.31 81.1-81.1 81.1-44.79 0-81.1-36.31-81.1-81.1 0-44.79 36.31-81.1 81.1-81.1 44.79 0 81.1 36.31 81.1 81.1Z"/><path fill="#fff" d="m133.9 40.6 24.5 11-24.5 11-24.6-11ZM158.4 54.6v105.7l-24.5 11.1V65.7Z"/><path d="M64.4 217.1v27H58V226h-.1l-7.7 9-3.7 4.3-3.8-4.3-7.8-9v18.2h-6.4v-27h5.7l12.2 13.7 12.1-13.7h5.9ZM86.3 217.1h18.4v4.7h-12v6.6h7.2v4.6h-7.2v6.4h12v4.7H86.3v-27ZM174 217.1h6.3v27.1H174v-27.1ZM217.5 217.1h-5l-14.2 27.1h6.9l3.3-6.9h12.7l3.5 6.9h7l-14.2-27.1Zm-6.6 15.3 4-8.4 4 8.4h-8ZM148.2 220.2c-3.8-2.5-9.4-3.1-14.1-3.1h-1.4v4.7c4 0 7.8 0 11.1 2.2 2.2 1.6 3.5 4.2 3.5 6.7 0 2.9-1.7 6-5 7.4-2.7 1.3-5.2 1.3-8.4 1.3h-1.2v4.7h1.5c3.7 0 8.1-.3 11.3-1.8 5.2-2.2 8.2-7.1 8.2-11.6.1-3.8-1.9-7.9-5.5-10.5Z"/><path d="M126.7 217.1h6.3v27h-6.3ZM.3 214.3v27l6.3 2.8v-27ZM267.7 235.8c0 4.9-4.5 8.3-10.6 8.3h-9.5v-4.5h9.5c2.4 0 4.5-1.2 4.5-3.2 0-3-3.3-3.5-6.2-4.4-1-.3-2-.7-3-1-3.3-1.4-4.9-3.5-4.9-6.5 0-4.3 4.1-7.4 9.5-7.4h10.7v4.4H257c-1.9 0-3.3 1.2-3.3 2.7 0 2.5 3 3 5.4 3.6 5 1.3 8.6 3.5 8.6 8Z"/></svg>