<svg width="300" height="300" viewBox="0 0 300 300" xmlns="http://www.w3.org/2000/svg" xmlns:xlink="http://www.w3.org/1999/xlink">
    <path id="Rounded-Rectangle" fill="#ffffff" fill-rule="evenodd" stroke="none" d="M 15.5 27 C 6.93966 27 0 33.939667 0 42.5 L 0 258.5 C 0 267.060333 6.93966 274 15.5 274 L 284.5 274 C 293.060333 274 300 267.060333 300 258.5 L 300 42.5 C 300 33.939667 293.060333 27 284.5 27 Z"/>
    <path id="Path" fill="#000000" stroke="none" d="M 230.899994 122 C 230.899994 166.789993 194.589996 203.100006 149.800003 203.100006 C 105.010002 203.100006 68.700005 166.789993 68.700005 122 C 68.700005 77.209991 105.010002 40.899994 149.800003 40.899994 C 194.589996 40.899994 230.899994 77.209991 230.899994 122 Z"/>
    <path id="path1" fill="#ffffff" stroke="none" d="M 149.899994 56.600006 L 174.399994 67.600006 L 149.899994 78.600006 L 125.300003 67.600006 Z M 174.399994 70.600006 L 174.399994 176.300003 L 149.899994 187.399994 L 149.899994 81.699997 Z"/>
    <path id="path2" fill="#000000" stroke="none" d="M 80.400002 233.100006 L 80.400002 260.100006 L 74 260.100006 L 74 242 L 73.900002 242 L 66.199997 251 L 62.5 255.300003 L 58.700001 251 L 50.900002 242 L 50.900002 260.200012 L 44.5 260.200012 L 44.5 233.199997 L 50.200001 233.199997 L 62.400002 246.899994 L 74.5 233.199997 L 80.400002 233.199997 Z M 102.300003 233.100006 L 120.699997 233.100006 L 120.699997 237.800003 L 108.699997 237.800003 L 108.699997 244.399994 L 115.900002 244.399994 L 115.900002 249 L 108.699997 249 L 108.699997 255.399994 L 120.699997 255.399994 L 120.699997 260.100006 L 102.300003 260.100006 L 102.300003 233.100006 Z M 190 233.100006 L 196.300003 233.100006 L 196.300003 260.200012 L 190 260.200012 L 190 233.100006 Z M 233.5 233.100006 L 228.5 233.100006 L 214.300003 260.200012 L 221.199997 260.200012 L 224.5 253.300003 L 237.199997 253.300003 L 240.699997 260.200012 L 247.699997 260.200012 L 233.5 233.100006 Z M 226.899994 248.399994 L 230.899994 240 L 234.899994 248.399994 L 226.899994 248.399994 Z M 164.199997 236.199997 C 160.399994 233.699997 154.800003 233.100006 150.100006 233.100006 L 148.699997 233.100006 L 148.699997 237.800003 C 152.699997 237.800003 156.5 237.800003 159.800003 240 C 162 241.600006 163.300003 244.199997 163.300003 246.699997 C 163.300003 249.600006 161.600006 252.699997 158.300003 254.100006 C 155.600006 255.399994 153.100006 255.399994 149.899994 255.399994 L 148.699997 255.399994 L 148.699997 260.100006 L 150.199997 260.100006 C 153.899994 260.100006 158.300003 259.799988 161.5 258.299988 C 166.699997 256.100006 169.699997 251.199997 169.699997 246.699997 C 169.800003 242.899994 167.800003 238.800003 164.199997 236.199997 Z"/>
    <path id="path3" fill="#000000" stroke="none" d="M 142.699997 233.100006 L 149 233.100006 L 149 260.100006 L 142.699997 260.100006 Z M 16.299999 230.300003 L 16.299999 257.299988 L 22.6 260.100006 L 22.6 233.100006 Z M 283.700012 251.800003 C 283.700012 256.700012 279.200012 260.100006 273.100006 260.100006 L 263.600006 260.100006 L 263.600006 255.600006 L 273.100006 255.600006 C 275.5 255.600006 277.600006 254.399994 277.600006 252.399994 C 277.600006 249.399994 274.299988 248.899994 271.399994 248 C 270.399994 247.699997 269.399994 247.300003 268.399994 247 C 265.100006 245.600006 263.5 243.5 263.5 240.5 C 263.5 236.199997 267.600006 233.100006 273 233.100006 L 283.700012 233.100006 L 283.700012 237.5 L 273 237.5 C 271.100006 237.5 269.700012 238.699997 269.700012 240.199997 C 269.700012 242.699997 272.700012 243.199997 275.100006 243.800003 C 280.100006 245.100006 283.700012 247.300003 283.700012 251.800003 Z"/>
</svg>
