<svg width="48" height="48" viewBox="0 0 48 48" xmlns="http://www.w3.org/2000/svg"><path fill="#f7df1e" fill-rule="evenodd" d="M5.429 2A3.429 3.429 0 0 0 2 5.429V42.57A3.429 3.429 0 0 0 5.429 46H42.57A3.429 3.429 0 0 0 46 42.571V5.43A3.429 3.429 0 0 0 42.571 2Z"/><path d="M31.42 36.15c.87 1.421 2.002 2.465 4.004 2.465 1.682 0 2.757-.84 2.757-2.002 0-1.392-1.104-1.885-2.956-2.695l-1.015-.435c-2.93-1.248-4.875-2.812-4.875-6.117 0-3.044 2.32-5.362 5.945-5.362 2.581 0 4.437.898 5.774 3.25l-3.161 2.03c-.696-1.248-1.447-1.74-2.613-1.74-1.189 0-1.943.755-1.943 1.74 0 1.218.755 1.71 2.496 2.465l1.015.435c3.45 1.479 5.397 2.987 5.397 6.377 0 3.655-2.871 5.657-6.727 5.657-3.77 0-6.206-1.797-7.398-4.151Zm-14.34.352c.637 1.131 1.217 2.088 2.612 2.088C21.025 38.59 22 38.029 22 36V22h4v14c0 4.203-2.403 6-6 6-3.25 0-5.268-1.472-6.225-3.497Z"/></svg>