<svg width="100" height="100" viewBox="0 0 100 100" xmlns="http://www.w3.org/2000/svg" xmlns:xlink="http://www.w3.org/1999/xlink">
    <path id="Ellipse" fill="#ed003e" fill-rule="evenodd" stroke="none" d="M 100 50 C 100 22.385765 77.614235 0 50 0 C 22.385761 0 -0 22.385765 -0 50 C -0 77.614243 22.385761 100 50 100 C 77.614235 100 100 77.614243 100 50 Z"/>
    <path id="Path" fill="#ffffff" stroke="none" d="M 61.580002 22.006004 L 45.476997 22.006004 C 45.063 22.006004 44.643997 22.036003 44.643997 22.036003 C 38.206001 22.388 33.944 26.079002 33.386002 26.589005 C 27.202999 31.997002 27.098 39.089001 27.1 39.688999 L 27.1 77.352005 C 27.101999 78.238998 27.829 78.962006 28.736 78.979004 L 28.864 78.979004 C 43.043999 78.979004 54.702 67.899002 55.231998 54.153 L 49.682999 54.153 C 49.18 63.59 42.140999 71.466995 32.645 73.221001 L 32.645 56.993 C 37.049999 51.920002 44.494999 52.120003 44.584999 52.120003 L 61.580002 52.120003 C 70.049995 52.120003 76.979996 45.344002 76.979996 37.062 C 76.975998 28.782005 70.046997 22.006004 61.580002 22.006004 Z M 68.529999 43.863998 C 66.676033 45.685921 64.179337 46.704716 61.580002 46.700001 L 44.756001 46.700001 C 43.855999 46.700001 38.000999 46.636002 32.648998 49.908001 L 32.648998 39.650002 C 32.648998 39.312 32.758999 34.395004 37.105999 30.612 L 37.192001 30.534004 C 37.223999 30.503998 40.612 27.427002 45.634998 27.427002 L 61.577999 27.427002 C 65.564995 27.419998 69.161995 29.766998 70.685997 33.368004 C 72.209999 36.970001 71.359001 41.115997 68.532997 43.863998 L 68.528999 43.863998 Z"/>
</svg>
