<svg width="100" height="100" viewBox="0 0 100 100" xmlns="http://www.w3.org/2000/svg"><path fill="#ed003e" fill-rule="evenodd" d="M100 50c0-27.614-22.386-50-50-50S0 22.386 0 50s22.386 50 50 50 50-22.386 50-50Z"/><path fill="#fff" d="M61.58 22.006H45.477c-.414 0-.833.03-.833.03-6.438.352-10.7 4.043-11.258 4.553-6.183 5.408-6.288 12.5-6.286 13.1v37.663c.002.887.729 1.61 1.636 1.627h.128c14.18 0 25.838-11.08 26.368-24.826h-5.549c-.503 9.437-7.542 17.314-17.038 19.068V56.993c4.405-5.073 11.85-4.873 11.94-4.873H61.58c8.47 0 15.4-6.776 15.4-15.058-.004-8.28-6.933-15.056-15.4-15.056Zm6.95 21.858a9.89 9.89 0 0 1-6.95 2.836H44.756c-.9 0-6.755-.064-12.107 3.208V39.65c0-.338.11-5.255 4.457-9.038l.086-.078c.032-.03 3.42-3.107 8.443-3.107h15.943c3.987-.007 7.584 2.34 9.108 5.941 1.524 3.602.673 7.748-2.153 10.496h-.004Z"/></svg>