<svg width="120" height="120" viewBox="0 0 120 120" xmlns="http://www.w3.org/2000/svg" xmlns:xlink="http://www.w3.org/1999/xlink">
    <path id="Path" fill="#ed003e" fill-rule="evenodd" stroke="none" d="M 110 60 C 110 32.386002 87.613998 10 60 10 C 32.386002 10 10 32.386002 10 60 C 10 87.613998 32.386002 110 60 110 C 87.613998 110 110 87.613998 110 60 Z"/>
    <path id="path1" fill="#ffffff" stroke="none" d="M 71.580002 32.005997 L 55.477001 32.005997 C 55.063 32.005997 54.644001 32.035995 54.644001 32.035995 C 48.206001 32.388 43.944 36.079002 43.386002 36.589005 C 37.202999 41.997002 37.098 49.088997 37.100002 49.688995 L 37.100002 87.351997 C 37.102001 88.238998 37.829002 88.961998 38.736 88.978996 L 38.864002 88.978996 C 53.043999 88.978996 64.702003 77.899002 65.232002 64.153 L 59.682999 64.153 C 59.18 73.589996 52.140999 81.467003 42.645 83.221001 L 42.645 66.992996 C 47.049999 61.919998 54.494999 62.119999 54.584999 62.119999 L 71.580002 62.119999 C 80.050003 62.119999 86.980003 55.344002 86.980003 47.061996 C 86.975998 38.781998 80.046997 32.005997 71.580002 32.005997 Z M 78.529999 53.863998 C 76.676033 55.685921 74.179337 56.704716 71.580002 56.700001 L 54.756001 56.700001 C 53.855999 56.700001 48.000999 56.636002 42.648998 59.908001 L 42.648998 49.650002 C 42.648998 49.311996 42.758999 44.395004 47.105999 40.612 L 47.192001 40.533997 C 47.223999 40.503998 50.612 37.427002 55.634998 37.427002 L 71.578003 37.427002 C 75.565002 37.419998 79.162003 39.766998 80.685997 43.367996 C 82.209999 46.970001 81.359001 51.115997 78.532997 53.863998 L 78.528999 53.863998 Z"/>
</svg>
