<svg width="400" height="400" viewBox="0 0 400 400" xmlns="http://www.w3.org/2000/svg"><path fill="#00b1d7" fill-rule="evenodd" d="M200.5 379C103.022 379 24 299.083 24 200.5S103.022 22 200.5 22c22.094 0 43.24 4.106 62.732 11.604C258.594 43.43 256 54.412 256 66c0 11.038 2.354 21.526 6.586 30.99C244.582 86.203 223.516 80 201 80c-66.274 0-120 53.726-120 120s53.726 120 120 120 120-53.726 120-120c0-23.488-6.749-45.4-18.412-63.902 9.047 3.8 18.984 5.902 29.412 5.902 11.67 0 22.726-2.631 32.607-7.332C372.604 155.038 377 177.25 377 200.5c0 98.583-79.022 178.5-176.5 178.5Z"/><path fill="#2b68a5" fill-rule="evenodd" d="M373 66.5c0-22.392-18.356-40.544-41-40.544S291 44.108 291 66.5c0 22.392 18.356 40.544 41 40.544s41-18.152 41-40.544Z"/><path fill="#01264d" fill-rule="evenodd" d="M278 200c0-43.078-34.922-78-78-78s-78 34.922-78 78 34.922 78 78 78 78-34.922 78-78Z"/></svg>