<svg width="400" height="400" viewBox="0 0 400 400" xmlns="http://www.w3.org/2000/svg" xmlns:xlink="http://www.w3.org/1999/xlink">
    <path id="Ellipse" fill="#ffffff" fill-rule="evenodd" stroke="none" d="M 400 200 C 400 89.54306 310.45694 0 200 0 C 89.543053 0 0 89.54306 0 200 C 0 310.45694 89.543053 400 200 400 C 310.45694 400 400 310.45694 400 200 Z"/>
    <path id="Path" fill="#00b1d7" fill-rule="evenodd" stroke="none" d="M 200.5 379 C 103.022003 379 24 299.083008 24 200.5 C 24 101.916992 103.022003 22 200.5 22 C 222.593994 22 243.740005 26.105988 263.231995 33.604004 C 258.593994 43.429993 256 54.411987 256 66 C 256 77.037994 258.354004 87.526001 262.585999 96.98999 C 244.582001 86.203003 223.516006 80 201 80 C 134.725998 80 81 133.726013 81 200 C 81 266.273987 134.725998 320 201 320 C 267.273987 320 321 266.273987 321 200 C 321 176.511993 314.251007 154.600006 302.588013 136.098022 C 311.63501 139.89801 321.571991 142 332 142 C 343.670013 142 354.726013 139.369019 364.606995 134.667999 C 372.604004 155.037994 377 177.25 377 200.5 C 377 299.083008 297.977997 379 200.5 379 Z"/>
    <path id="path1" fill="#2b68a5" fill-rule="evenodd" stroke="none" d="M 373 66.5 C 373 44.108002 354.644012 25.955994 332 25.955994 C 309.355988 25.955994 291 44.108002 291 66.5 C 291 88.891998 309.355988 107.044006 332 107.044006 C 354.644012 107.044006 373 88.891998 373 66.5 Z"/>
    <path id="path2" fill="#01264d" fill-rule="evenodd" stroke="none" d="M 278 200 C 278 156.921997 243.078003 122 200 122 C 156.921997 122 122 156.921997 122 200 C 122 243.078003 156.921997 278 200 278 C 243.078003 278 278 243.078003 278 200 Z"/>
</svg>
