<svg width="52" height="52" viewBox="0 0 52 52" xmlns="http://www.w3.org/2000/svg"><path fill="#222" d="M41.75 12.29c-3.55 0-6.33 1.58-8.04 4-1.71-2.42-4.49-4-8.04-4-4.54 0-7.83 2.6-9.22 6.24v-5.76h-5.19v11.51c0 2.19-.81 3.48-3.04 3.48-2.22 0-3.03-1.29-3.03-3.48V12.77H0v12.56c0 1.83.45 3.45 1.38 4.7.89 1.26 2.27 2.189 4.13 2.59v8.189h5.43V32.62c3.31-.72 5.08-3.03 5.44-6.09 1.35 3.739 4.68 6.42 9.29 6.42 3.55 0 6.33-1.58 8.04-4 1.71 2.42 4.49 4 8.04 4 6.12 0 9.96-4.7 9.96-10.33s-3.84-10.33-9.96-10.33ZM25.67 27.76c-2.87 0-4.78-1.86-4.78-5.14 0-3.28 1.91-5.15 4.78-5.15 2.88 0 4.78 1.87 4.78 5.15 0 3.28-1.9 5.14-4.78 5.14Zm16.08 0c-2.88 0-4.78-1.86-4.78-5.14 0-3.28 1.9-5.15 4.78-5.15 2.87 0 4.78 1.87 4.78 5.15 0 3.28-1.91 5.14-4.78 5.14Z"/></svg>