<svg width="57" height="57" viewBox="0 0 57 57" xmlns="http://www.w3.org/2000/svg" xmlns:xlink="http://www.w3.org/1999/xlink">
    <path id="Rounded-Rectangle" fill="#ffffff" fill-rule="evenodd" stroke="none" d="M 3.25 12 C 1.45509 12 0 13.45509 0 15.25 L 0 43.75 C 0 45.54491 1.45509 47 3.25 47 L 18.75 47 C 20.54491 47 22 45.54491 22 43.75 L 22 15.25 C 22 13.45509 20.54491 12 18.75 12 Z"/>
    <path id="path1" fill="#ffffff" fill-rule="evenodd" stroke="none" d="M 5.25 12 C 2.35053 12 0 14.350533 0 17.25 L 0 32.75 C 0 35.649467 2.35053 38 5.25 38 L 51.75 38 C 54.649471 38 57 35.649467 57 32.75 L 57 17.25 C 57 14.350533 54.649471 12 51.75 12 Z"/>
    <path id="Path" fill="#222222" stroke="none" d="M 44.75 15.290001 C 41.200001 15.290001 38.419998 16.869999 36.709999 19.290001 C 35 16.869999 32.220001 15.290001 28.67 15.290001 C 24.129999 15.290001 20.84 17.889999 19.450001 21.529999 L 19.450001 15.77 L 14.26 15.77 L 14.26 27.280001 C 14.26 29.469999 13.45 30.76 11.22 30.76 C 9 30.76 8.190001 29.469999 8.190001 27.280001 L 8.190001 15.77 L 3 15.77 L 3 28.33 C 3 30.16 3.45 31.780001 4.38 33.029999 C 5.27 34.290001 6.65 35.219002 8.51 35.619999 L 8.51 43.808998 L 13.94 43.808998 L 13.94 35.619999 C 17.25 34.900002 19.02 32.59 19.379999 29.530001 C 20.73 33.268997 24.059999 35.950001 28.67 35.950001 C 32.220001 35.950001 35 34.370003 36.709999 31.950001 C 38.419998 34.370003 41.200001 35.950001 44.75 35.950001 C 50.869999 35.950001 54.709999 31.25 54.709999 25.620001 C 54.709999 19.989998 50.869999 15.290001 44.75 15.290001 Z M 28.67 30.76 C 25.799999 30.76 23.889999 28.9 23.889999 25.620001 C 23.889999 22.34 25.799999 20.470001 28.67 20.470001 C 31.549999 20.470001 33.450001 22.34 33.450001 25.620001 C 33.450001 28.9 31.549999 30.76 28.67 30.76 Z M 44.75 30.76 C 41.869999 30.76 39.970001 28.9 39.970001 25.620001 C 39.970001 22.34 41.869999 20.470001 44.75 20.470001 C 47.619999 20.470001 49.529999 22.34 49.529999 25.620001 C 49.529999 28.9 47.619999 30.76 44.75 30.76 Z"/>
</svg>
